<svg width="325.22" height="60.267" version="1.1" viewBox="0 0 325.22 60.267" xml:space="preserve" xmlns="http://www.w3.org/2000/svg"><g transform="matrix(1.3333 0 0 -1.3333 -222.16 524.82)"><path d="m229.14 374.3h-2.4455l3e-3 -4.3911m-3e-3 -7.6728v-6.7471m0-3.6006v-0.32139h17.202v0.32139m0 3.6058v6.7536m0 7.6611v4.3911h-2.2267" fill="none" stroke="#231f20" stroke-linecap="round" stroke-width=".4"/><g transform="translate(230.93 373.41)"><path d="m0 0h-1.739v5.979h12.411v-5.979h-1.913v3.998h-8.759z" fill="none" stroke="#231f20" stroke-width=".32"/></g><g transform="translate(231.83 355.43)"><path d="m0 0h6.952v-3.476h8.727v3.476h-5.041v10.429-3.545h5.041v7.543h-7.822v7.544h-8.758v-7.544h-7.858v-7.543h5.11v3.511-10.395h-5.11v-3.476h8.759z" fill="none" stroke="#231f20" stroke-width=".32"/><g transform="translate(4.725,18.737)"><path d="m0 0h1.7734v1.287h-1.7734z" fill="none" stroke="#231f20" stroke-width=".32"/><g transform="translate(-4.271)"><path d="m0 0h1.7725v1.287h-1.7725z" fill="none" stroke="#231f20" stroke-width=".32"/><g transform="translate(3.773 -.626)"><path d="m0 0c0-0.619 0.011-0.93-0.767-0.93-0.762 0-0.763 0.308-0.763 0.93" fill="none" stroke="#231f20" stroke-width=".32"/><g transform="translate(-3.802,2.794)"><path d="m0 0h1.831" fill="none" stroke="#231f20" stroke-width=".32"/><g transform="translate(4.271)"><path d="m0 0h1.831" fill="none" stroke="#231f20" stroke-width=".32"/><g transform="translate(-3.686,-5.227)"><path d="m0 0h4.901" fill="none" stroke="#231f20" stroke-width=".32"/><g transform="translate(4.511,3.556)"><path d="m0 0h0.18359v0.29401h-0.18359z" fill="none" stroke="#231f20" stroke-width=".32"/><g transform="translate(-4.272)"><path d="m0 0h0.18559v0.29401h-0.18559z" fill="none" stroke="#231f20" stroke-width=".32"/></g></g></g></g></g></g></g></g></g><path d="m178.82 351.57h17.202v22.733h-17.202z" fill="none" stroke="#231f20" stroke-linecap="round" stroke-width=".4"/><g transform="translate(183.4 363.26)"><path d="m0 0h-0.911v3.128h6.498v-3.128h-1.001v2.091h-4.586z" fill="none" stroke="#231f20" stroke-width=".24"/></g><g transform="translate(183.87 353.85)"><path d="m-3.75e-8 0h3.641v-1.82h4.565v1.82h-2.637v5.46-1.856h2.637v3.949h-4.093v3.948h-4.586v-3.948h-4.112v-3.949h2.673v1.838-5.442h-2.673v-1.82h4.585z" fill="none" stroke="#231f20" stroke-width=".24"/><g transform="translate(2.474,9.81)"><path d="m0 0h0.9277v0.673h-0.9277z" fill="none" stroke="#231f20" stroke-width=".24"/><g transform="translate(-2.236)"><path d="m0 0h0.9277v0.673h-0.9277z" fill="none" stroke="#231f20" stroke-width=".24"/><g transform="translate(1.974 -.327)"><path d="m0 0c0-0.325 6e-3 -0.489-0.399-0.489-0.401 0-0.402 0.162-0.402 0.489" fill="none" stroke="#231f20" stroke-width=".24"/><g transform="translate(-1.99,1.46)"><path d="m0 0h0.959" fill="none" stroke="#231f20" stroke-width=".24"/><g transform="translate(2.237)"><path d="m0 0h0.959" fill="none" stroke="#231f20" stroke-width=".24"/><g transform="translate(-1.931,-2.735)"><path d="m0 0h2.566" fill="none" stroke="#231f20" stroke-width=".24"/><g transform="translate(2.362,1.86)"><path d="m0 0h0.095703v0.15399h-0.095703z" fill="none" stroke="#231f20" stroke-width=".24"/><g transform="translate(-2.237)"><path d="m0 0h0.096695v0.15399h-0.096695z" fill="none" stroke="#231f20" stroke-width=".24"/></g></g></g></g></g></g></g></g></g><path d="m294.77 373.02v1.2827h-3.0523m-11.045 0h-3.1037v-1.2534m4.2463-21.48h8.7598" fill="none" stroke="#231f20" stroke-linecap="round" stroke-width=".4"/><g transform="translate(280.67 377.51)"><path d="m0 0h-2.19v7.53h15.628v-7.53h-2.406v5.033h-11.032z" fill="none" stroke="#231f20" stroke-width=".403"/></g><g transform="translate(281.81 354.88)"><path d="m0 0h8.755v-4.378h10.988v4.378h-6.348v13.135-4.467h6.348v9.5h-9.85v9.5h-11.032v-9.5h-9.895v-9.5h6.436v4.422-13.09h-6.436v-4.378h11.034z" fill="none" stroke="#231f20" stroke-width=".403"/><g transform="translate(5.948,23.597)"><path d="m0 0h2.232v1.62h-2.232z" fill="none" stroke="#231f20" stroke-width=".403"/><g transform="translate(-5.38)"><path d="m0 0h2.233v1.62h-2.233z" fill="none" stroke="#231f20" stroke-width=".403"/><g transform="translate(4.751 -.787)"><path d="m0 0c0-0.782 0.015-1.173-0.964-1.173-0.963 0-0.964 0.389-0.964 1.173" fill="none" stroke="#231f20" stroke-width=".403"/><g transform="translate(-4.789,3.516)"><path d="m0 0h2.308" fill="none" stroke="#231f20" stroke-width=".403"/><g transform="translate(5.381)"><path d="m0 0h2.305" fill="none" stroke="#231f20" stroke-width=".403"/><g transform="translate(-4.643,-6.582)"><path d="m0 0h6.173" fill="none" stroke="#231f20" stroke-width=".403"/><g transform="translate(5.681,4.477)"><path d="m0 0h0.23199v0.37099h-0.23199z" fill="none" stroke="#231f20" stroke-width=".403"/><g transform="translate(-5.382)"><path d="m0 0h0.23201v0.37099h-0.23201z" fill="none" stroke="#231f20" stroke-width=".403"/></g></g></g></g></g></g></g></g></g><g transform="translate(337.16 370.8)"><path d="m0 0v-2.089h-7.803v18.125h15.421v-14.807h7.681v-20.768h-6.021v11.612-11.612h-5.408v5.347h-12.225v8.478-8.478h12.225v-5.347h-6.45l-1.782-0.861h-11.181v21.629h7.74" fill="none" stroke="#231f20" stroke-width=".48"/><g transform="translate(-7.803,7.618)"><path d="m0 0h-3.071v13.271h21.625v-13.271h-3.133" fill="none" stroke="#231f20" stroke-width=".48"/><g transform="translate(12.412,-3.81)"><path d="m0 0h-8.787" fill="none" stroke="#231f20" stroke-width=".48"/><g transform="translate(-2.858,4.87)"><path d="m0 0h3.284v1.971h-3.284z" fill="none" stroke="#231f20" stroke-width=".48"/><g transform="translate(-6.678)"><path d="m0 0h3.286v1.971h-3.286z" fill="none" stroke="#231f20" stroke-width=".48"/><g transform="translate(6.154,-1.348)"><path d="m0 0c0-0.968 0.018-1.455-1.196-1.455-1.194 0-1.197 0.483-1.197 1.455" fill="none" stroke="#231f20" stroke-width=".48"/><g transform="translate(-6.555,4.365)"><path d="m0 0h4.088" fill="none" stroke="#231f20" stroke-width=".48"/><g transform="translate(6.632)"><path d="m0 0h4.179" fill="none" stroke="#231f20" stroke-width=".48"/><g transform="translate(1.944,-2.262)"><path d="m0 0h0.289v0.45999h-0.289z" fill="none" stroke="#231f20" stroke-width=".48"/><g transform="translate(-6.677)"><path d="m0 0h0.29001v0.45999h-0.29001z" fill="none" stroke="#231f20" stroke-width=".48"/></g></g></g></g></g></g></g></g></g></g><g transform="translate(380.78 375.65)"><path d="m0 0v-8.355h-9.215v-18.617h13.333l16.035 6.82v4.731-4.363l-5.222 3.625-16.22-3.133 1.536 0.308v3.44" fill="none" stroke="#231f20" stroke-width=".534"/><path d="m0 0h-3.686v17.694h28.63v-17.694h-4.054v13.147h-20.89z" fill="none" stroke="#231f20" stroke-width=".534"/><g transform="translate(9.831,-24.575)"><path d="m0 0 5.713-2.397h13.947v18.617h-8.601v8.355-11.796h-10.138v4.24h-2.396 2.396v-4.179h-10.752v3.38" fill="none" stroke="#231f20" stroke-width=".534"/><g transform="translate(6.705,21.39)"><path d="m0 0h-12.268" fill="none" stroke="#231f20" stroke-width=".534"/><g transform="translate(-4.173,6.836)"><path d="m0 0h5.079v2.769h-5.079z" fill="none" stroke="#231f20" stroke-width=".534"/><g transform="translate(-8.833)"><path d="m0 0h5.016v2.769h-5.016z" fill="none" stroke="#231f20" stroke-width=".534"/><g transform="translate(8.592,-1.357)"><path d="m0 0c0-1.36 0.028-2.044-1.669-2.044-1.668 0-1.671 0.679-1.671 2.044" fill="none" stroke="#231f20" stroke-width=".534"/><g transform="translate(-9.915,5.597)"><path d="m0 0h6.433" fill="none" stroke="#231f20" stroke-width=".534"/><g transform="translate(10.07)"><path d="m0 0h6.724" fill="none" stroke="#231f20" stroke-width=".534"/><g transform="translate(2.671,-3.179)"><path d="m0 0h0.401v0.64801h-0.401z" fill="none" stroke="#231f20" stroke-width=".534"/><g transform="translate(-9.326)"><path d="m0 0h0.40199v0.64801h-0.40199z" fill="none" stroke="#231f20" stroke-width=".534"/></g></g></g></g></g></g></g></g></g></g><g transform="translate(211.82 360.26)"><path d="m0 0c0-1.086-0.88-1.965-1.966-1.965-1.085 0-1.967 0.879-1.967 1.965 0 1.087 0.882 1.968 1.967 1.968 1.086 0 1.966-0.881 1.966-1.968" fill="#231f20"/><path d="m0 0c0-1.086-0.88-1.965-1.966-1.965-1.085 0-1.967 0.879-1.967 1.965 0 1.087 0.882 1.968 1.967 1.968 1.086 0 1.966-0.881 1.966-1.968z" fill="none" stroke="#231f20" stroke-linecap="round" stroke-width=".48"/></g><g transform="translate(262.69 360.26)"><path d="m0 0c0-1.086-0.879-1.965-1.965-1.965s-1.965 0.879-1.965 1.965c0 1.087 0.879 1.968 1.965 1.968s1.965-0.881 1.965-1.968" fill="#231f20"/><path d="m0 0c0-1.086-0.879-1.965-1.965-1.965s-1.965 0.879-1.965 1.965c0 1.087 0.879 1.968 1.965 1.968s1.965-0.881 1.965-1.968z" fill="none" stroke="#231f20" stroke-linecap="round" stroke-width=".48"/></g><g transform="translate(313.57 360.26)"><path d="m0 0c0-1.086-0.878-1.965-1.963-1.965-1.087 0-1.966 0.879-1.966 1.965 0 1.087 0.879 1.968 1.966 1.968 1.085 0 1.963-0.881 1.963-1.968" fill="#231f20"/><path d="m0 0c0-1.086-0.878-1.965-1.963-1.965-1.087 0-1.966 0.879-1.966 1.965 0 1.087 0.879 1.968 1.966 1.968 1.085 0 1.963-0.881 1.963-1.968z" fill="none" stroke="#231f20" stroke-linecap="round" stroke-width=".48"/></g><g transform="translate(364.44 360.26)"><path d="m0 0c0-1.086-0.881-1.965-1.966-1.965-1.086 0-1.965 0.879-1.965 1.965 0 1.087 0.879 1.968 1.965 1.968 1.085 0 1.966-0.881 1.966-1.968" fill="#231f20"/><path d="m0 0c0-1.086-0.881-1.965-1.966-1.965-1.086 0-1.965 0.879-1.965 1.965 0 1.087 0.879 1.968 1.965 1.968 1.085 0 1.966-0.881 1.966-1.968z" fill="none" stroke="#231f20" stroke-linecap="round" stroke-width=".48"/></g></g></svg>
