<?xml version="1.0" encoding="UTF-8" standalone="no"?>
<svg
   xmlns:dc="http://purl.org/dc/elements/1.1/"
   xmlns:cc="http://creativecommons.org/ns#"
   xmlns:rdf="http://www.w3.org/1999/02/22-rdf-syntax-ns#"
   xmlns:svg="http://www.w3.org/2000/svg"
   xmlns="http://www.w3.org/2000/svg"
   xmlns:sodipodi="http://sodipodi.sourceforge.net/DTD/sodipodi-0.dtd"
   xmlns:inkscape="http://www.inkscape.org/namespaces/inkscape"
   width="323.34"
   height="63.584"
   version="1.1"
   viewBox="0 0 323.34 63.584"
   xml:space="preserve"
   id="svg8"
   sodipodi:docname="familiarity.svg"
   inkscape:version="1.0.2 (e86c870879, 2021-01-15, custom)"
   inkscape:export-filename="C:\Users\mhr\workspace\flutter_ws\emowear\assets\sam\familiarity.png"
   inkscape:export-xdpi="600"
   inkscape:export-ydpi="600"><metadata
     id="metadata14"><rdf:RDF><cc:Work
         rdf:about=""><dc:format>image/svg+xml</dc:format><dc:type
           rdf:resource="http://purl.org/dc/dcmitype/StillImage" /><dc:title /></cc:Work></rdf:RDF></metadata><defs
     id="defs12"><clipPath
       id="id2"><path
         d="M 242,123 H 362 V 310.69531 H 242 Z m 0,0"
         clip-rule="nonzero"
         id="path5" /></clipPath><clipPath
       id="id6"><path
         d="m 485,121.69531 h 123.07031 v 201 H 485 Z m 0,0"
         clip-rule="nonzero"
         id="path17" /></clipPath></defs><sodipodi:namedview
     pagecolor="#ffffff"
     bordercolor="#666666"
     borderopacity="1"
     objecttolerance="10"
     gridtolerance="10"
     guidetolerance="10"
     inkscape:pageopacity="0"
     inkscape:pageshadow="2"
     inkscape:window-width="2880"
     inkscape:window-height="1514"
     id="namedview10"
     showgrid="false"
     inkscape:zoom="5.6568543"
     inkscape:cx="173.92451"
     inkscape:cy="-4.4282397"
     inkscape:window-x="2869"
     inkscape:window-y="-11"
     inkscape:window-maximized="1"
     inkscape:current-layer="svg8"
     inkscape:document-rotation="0" /><g
     id="g282"
     transform="matrix(0.33342024,0,0,0.33342024,-20.939839,-40.858508)"
     style="fill:#000000"><path
       fill="#000000"
       d="m 151.89602,196.49052 c -3.52344,-1.46484 -7.49219,-1.46484 -11.16016,0 -3.67187,1.61328 -6.60937,4.39453 -8.07812,8.20313 l -27.31641,66.22656 c -0.58594,1.46484 0.14844,3.22266 1.61719,3.80859 1.46875,0.58594 3.23047,-0.14843 3.8164,-1.61328 0,0 27.31641,-66.22265 27.31641,-66.22265 1.76172,-4.39454 7.04688,-6.88672 11.60156,-4.98047 4.55078,1.90234 6.60938,7.03125 4.84766,11.71875 l -35.6875,86.14843 c -0.58594,1.46485 0.14844,3.22657 1.61719,3.8125 1.46875,0.58594 3.23047,-0.14843 3.8164,-1.61328 l 35.6875,-86.14843 c 2.9336,-7.61719 -0.58984,-16.26172 -8.07812,-19.33985 z m 0,0"
       fill-opacity="1"
       fill-rule="nonzero"
       id="path39"
       style="fill:#000000" /><path
       fill="#000000"
       d="m 121.14211,209.02177 c 0.14453,0.36328 0.21485,0.73828 0.21094,1.125 -0.004,0.39063 -0.082,0.76172 -0.23828,1.11719 -0.15235,0.35937 -0.36719,0.67187 -0.64844,0.94531 -0.27734,0.26953 -0.59766,0.48047 -0.96094,0.6211 -0.35937,0.14453 -0.73437,0.21484 -1.125,0.21093 -0.39062,-0.004 -0.76172,-0.082 -1.12109,-0.23828 -0.35938,-0.15234 -0.67188,-0.36719 -0.94531,-0.64453 -0.27344,-0.27734 -0.48047,-0.59766 -0.625,-0.95703 -0.14453,-0.36328 -0.21485,-0.73828 -0.21094,-1.125 0.008,-0.39063 0.0859,-0.76172 0.23828,-1.12109 0.15234,-0.35547 0.37109,-0.66797 0.64844,-0.94141 0.27734,-0.26953 0.59765,-0.48047 0.96094,-0.625 0.36328,-0.14063 0.73828,-0.21094 1.125,-0.20703 0.39062,0.004 0.76562,0.082 1.12109,0.23437 0.35937,0.15625 0.67578,0.3711 0.94531,0.64844 0.27344,0.27734 0.48047,0.59766 0.625,0.95703 z m 0,0"
       fill-opacity="1"
       fill-rule="nonzero"
       id="path41"
       style="fill:#000000" /><path
       fill="#000000"
       d="m 97.411644,181.25224 c 1.617188,0.29297 3.085936,-0.73047 3.378906,-2.34375 0.29297,-1.90234 1.61328,-3.51562 3.67187,-4.25 2.9375,-1.17187 6.46094,0.14844 7.63672,2.78516 0.87891,2.05078 0.58594,4.25 -0.88281,5.85937 -2.78906,2.9336 -3.67187,7.17969 -2.34766,10.40235 0,0 2.78907,6.44921 2.78907,6.44921 0.58593,1.46485 2.34765,2.19532 3.8164,1.60938 1.46875,-0.58594 2.20313,-2.34375 1.61719,-3.80859 l -2.78906,-6.44532 c -0.44141,-1.17187 0,-2.92968 1.17187,-4.10156 3.23047,-3.37109 3.96485,-8.20703 1.91016,-12.30859 -2.64453,-5.42188 -9.39844,-8.0586 -15.125,-5.85938 -3.820312,1.46485 -6.609375,4.6875 -7.34375,8.64453 -0.292968,1.60938 0.882813,3.07422 2.496094,3.36719 z m 0,0"
       fill-opacity="1"
       fill-rule="nonzero"
       id="path43"
       style="fill:#000000" /><g
       clip-path="url(#id2)"
       id="g51"
       transform="translate(-112.55711,0.51395939)"
       style="fill:#000000"><path
         fill="#000000"
         d="m 361.66797,267.03516 c 0.58984,-20.95313 -24.81641,-31.64844 -35.83203,-35.16407 -0.87891,-0.29297 -4.84375,-2.19531 -9.98438,-4.6875 0.29297,-0.58593 0.29297,-1.17187 0.14844,-1.75781 -0.14844,-0.87891 -0.73438,-1.61328 -1.46875,-1.90625 l -12.33594,-6.29687 c -0.73437,-0.29688 -1.46875,-0.44141 -2.20312,-0.14844 v -9.66797 c 4.10937,-5.57031 7.19531,-12.01563 9.6914,-18.16797 0.73438,-1.75781 1.46875,-3.37109 2.20313,-5.12891 4.84375,-11.13671 9.98437,-22.71093 5.28515,-35.45703 -4.10937,-11.13281 -10.86718,-18.60547 -20.55859,-22.5625 -1.91016,-0.8789 -6.31641,-2.05078 -8.37109,-2.48828 -9.98438,-1.90625 -19.82422,0.73047 -29.07813,7.91016 -10.71875,8.20312 -12.48047,20.65625 -14.24219,32.8164 -0.29296,1.90625 -0.58984,3.66407 -0.88281,5.57032 -1.32031,7.91015 -2.20312,17.28906 -0.58594,26.07812 1.46875,-1.75781 3.375,-3.22265 5.28516,-4.25 -0.58594,-5.85937 -0.29297,-12.74609 1.02734,-20.80469 0.29688,-1.90234 0.58985,-3.80859 0.88282,-5.71093 1.61328,-11.42969 3.23047,-22.125 12.04297,-28.86328 7.04687,-5.27735 15.5664,-8.35157 24.375,-6.74219 1.61718,0.29297 5.58203,1.46484 7.19921,2.05078 8.22266,3.22656 13.94922,9.52344 17.47266,19.04687 3.96484,10.55079 -0.44141,20.51172 -5.14062,31.0625 -0.73438,1.75782 -1.61329,3.51563 -2.19922,5.27344 -7.34375,17.58203 -15.42188,26.8125 -25.9961,29.30078 -0.14453,0.44141 -2.49609,6.30078 -2.49609,6.30078 7.49219,-0.73046 13.51172,-3.95312 18.35937,-8.49609 v 7.47266 l -18.0664,14.64843 c -0.29297,0.14844 -0.4375,0.44141 -0.58594,0.73438 -0.58594,0 -0.44141,0 -1.02734,0 -0.14844,-0.29297 -0.29297,-0.44141 -0.58985,-0.73438 l -2.78906,-2.34375 -6.01953,14.35938 7.04687,-6.00781 v 40.73047 c 0,1.61328 1.32422,2.92968 2.9375,2.92968 1.61719,0 2.9375,-1.3164 2.9375,-2.92968 v -40.58204 c 0,0 13.80469,11.86719 13.80469,11.86719 1.32031,1.02344 3.23047,0.87891 4.25781,-0.4414 l 16.30079,-21.82813 c 5.58203,2.78125 10.42578,5.125 11.60156,5.41797 9.6914,3.22656 32.30859,12.30859 31.86719,29.44922 v 40.8789 c 0,1.60938 1.32421,2.92969 2.9375,2.92969 1.61718,0 2.9375,-1.32031 2.9375,-2.92969 z m -68.4336,-19.19532 -10.71875,-9.22656 18.79688,-15.23828 7.48828,3.80859 z m 0,0"
         fill-opacity="1"
         fill-rule="nonzero"
         id="path49"
         style="fill:#000000" /></g></g><g
     clip-path="url(#id6)"
     id="g85"
     transform="matrix(0.33102535,0,0,0.33102535,111.49017,-39.772478)"
     style="fill:#000000"><path
       fill="#000000"
       d="m 608.00391,252.24219 v -0.15625 c -1.25782,-16.94532 -21.64454,-24.47657 -22.42579,-24.79297 l -34.65625,-13.33594 v -5.64844 c 4.70313,-8.3164 6.74219,-18.51562 7.83985,-27.92968 0.15625,-1.88282 0.46875,-3.76563 0.78515,-5.64844 1.72266,-12.39453 3.44922,-25.26172 -4.86328,-36.40235 -7.37109,-9.88671 -16.15234,-15.22265 -26.97265,-16.32031 -2.98047,-0.3125 -6.11719,-0.3125 -8.9375,0 -10.66407,1.09766 -19.44532,6.4336 -26.66016,16.16406 -8.3125,11.14063 -6.58594,24.00391 -4.86328,36.40235 0.31641,1.88281 0.47266,3.76562 0.78516,5.64844 0.9414,8.3164 2.82421,18.04296 7.21484,26.35937 2.02378,3.63976 3.49039,5.83276 5.29934,8.22478 5.62169,6.68384 8.09026,8.17754 10.96311,9.65262 3.39925,1.74537 6.43016,3.94959 9.65637,4.38658 2.47765,0.12609 5.92977,1.41154 10.59666,-0.65316 4.19144,-2.92983 2.48684,-1.61662 5.57077,-3.8815 2.30061,-2.23684 1.57067,-1.68701 3.65568,-3.4646 1.3889,-1.56493 2.55885,-3.12411 3.96901,-4.37802 v 7.375 0.15625 9.88672 l -21.79688,25.41797 -5.01953,-5.96485 -3.76172,5.17969 5.80078,6.90234 v 18.67188 c 0,1.72656 1.41016,3.14062 3.13672,3.14062 1.72266,0 3.13672,-1.41406 3.13672,-3.14062 v -18.82813 -0.15625 l 23.67969,-28.08593 c 0.46875,-0.62891 0.78515,-1.25391 0.78515,-2.03907 v -14.4375 l 32.46094,12.55469 c 0.15625,0 17.40625,6.4336 18.34766,19.29688 v 56.06618 c 0,1.72266 1.41015,3.13672 3.13672,3.13672 1.72265,0 3.13672,-1.41406 3.13672,-3.13672 z"
       fill-opacity="1"
       fill-rule="nonzero"
       id="path83"
       sodipodi:nodetypes="cccccccccccccccsccccccccccccssscccscccsssc"
       style="fill:#000000" /></g><path
     fill="#000000"
     d="m 274.58687,35.432147 0.016,-2.006677 c 0.004,-0.55962 0.29638,-0.972874 1.1635,-0.966747 0.85069,0.0071 1.13404,0.443989 1.13071,0.95044 l -0.0168,2.041224 -0.44435,5.960507 -1.50023,-0.01265 z m 0,0"
     fill-opacity="1"
     fill-rule="nonzero"
     id="path113"
     style="fill:#000000;stroke-width:0.578299" /><path
     fill="#000000"
     d="m 275.6288,44.719348 c -0.6493,-0.0054 -1.01637,-0.47727 -1.01308,-1.015683 0.005,-0.552248 0.39409,-0.976842 1.06976,-0.970803 0.60705,0.0046 1.01637,0.47727 1.01244,0.987251 -0.005,0.552251 -0.3667,1.00425 -1.06912,0.999235 z m 0,0"
     fill-opacity="1"
     fill-rule="nonzero"
     id="path115"
     style="fill:#000000;stroke-width:0.441399" /></svg>
