<?xml version="1.0" encoding="UTF-8" standalone="no"?>
<svg
   xmlns:dc="http://purl.org/dc/elements/1.1/"
   xmlns:cc="http://creativecommons.org/ns#"
   xmlns:rdf="http://www.w3.org/1999/02/22-rdf-syntax-ns#"
   xmlns:svg="http://www.w3.org/2000/svg"
   xmlns="http://www.w3.org/2000/svg"
   xmlns:sodipodi="http://sodipodi.sourceforge.net/DTD/sodipodi-0.dtd"
   xmlns:inkscape="http://www.inkscape.org/namespaces/inkscape"
   width="312.59"
   height="53.835"
   version="1.1"
   viewBox="0 0 312.59 53.835"
   xml:space="preserve"
   id="svg378"
   sodipodi:docname="arousal.svg"
   inkscape:version="1.0.2 (e86c870879, 2021-01-15, custom)"><metadata
     id="metadata384"><rdf:RDF><cc:Work
         rdf:about=""><dc:format>image/svg+xml</dc:format><dc:type
           rdf:resource="http://purl.org/dc/dcmitype/StillImage" /></cc:Work></rdf:RDF></metadata><defs
     id="defs382" /><sodipodi:namedview
     pagecolor="#ffffff"
     bordercolor="#666666"
     borderopacity="1"
     objecttolerance="10"
     gridtolerance="10"
     guidetolerance="10"
     inkscape:pageopacity="0"
     inkscape:pageshadow="2"
     inkscape:window-width="2880"
     inkscape:window-height="1514"
     id="namedview380"
     showgrid="false"
     inkscape:zoom="3.182761"
     inkscape:cx="136.34356"
     inkscape:cy="-51.12615"
     inkscape:window-x="2869"
     inkscape:window-y="-11"
     inkscape:window-maximized="1"
     inkscape:current-layer="svg378" /><g
     id="g758"><g
       transform="matrix(1.3333,0,0,-1.3333,297.71683,43.37075)"
       id="g208"><path
         d="M 0,0 H -8.69 V -4.344 H -19.593 V 0 h 6.298 V 13.034 8.603 h -6.298 v 9.427 h 9.774 v 9.426 H 1.128 V 18.03 h 9.819 V 8.603 H 4.561 V 12.989 0 h 6.386 V -4.344 H 0 Z"
         fill="none"
         stroke="#231f20"
         stroke-width="0.4"
         id="path6" /><g
         transform="translate(1.128,22.46)"
         id="g206"><path
           d="m 0,0 h 2.174 v 7.472 h -15.51 V 0 h 2.389 V 4.996 H 0 Z"
           fill="none"
           stroke="#231f20"
           stroke-width="0.4"
           id="path8" /><g
           transform="translate(-6.407,0.175)"
           id="g204"><path
             d="M 0,0 C 0,-0.774 -0.015,-1.164 0.955,-1.164 1.909,-1.164 1.91,-0.778 1.91,0"
             fill="none"
             stroke="#231f20"
             stroke-width="0.4"
             id="path10" /><g
             transform="translate(5.009,3.749)"
             id="g202"><path
               d="M 0,0 H -2.288"
               fill="none"
               stroke="#231f20"
               stroke-width="0.4"
               id="path12" /><g
               transform="translate(-0.258)"
               id="g200"><path
                 d="M 0,0 H -2.289"
                 fill="none"
                 stroke="#231f20"
                 stroke-width="0.4"
                 id="path14" /><g
                 transform="translate(-5.34)"
                 id="g198"><path
                   d="M 0,0 H -2.289"
                   fill="none"
                   stroke="#231f20"
                   stroke-width="0.4"
                   id="path16" /><g
                   transform="translate(4.079,-2.15)"
                   id="g196"><path
                     d="M 0,0 H 0.231 V 0.3687 H 0 Z"
                     fill="none"
                     stroke="#231f20"
                     stroke-width="0.4"
                     id="path18" /><g
                     transform="translate(-5.338,-0.015)"
                     id="g194"><path
                       d="M 0,0 H 0.23099 V 0.36862 H 0 Z"
                       fill="none"
                       stroke="#231f20"
                       stroke-width="0.4"
                       id="path20" /><g
                       transform="translate(-43.747,-24.219)"
                       id="g192"><path
                         d="M 0,0 H -8.691 V -4.344 H -19.594 V 0 h 6.299 V 13.034 8.603 h -6.299 v 9.427 h 9.775 v 9.426 H 1.128 V 18.03 h 9.819 V 8.603 H 4.56 V 12.989 0 h 6.387 V -4.344 H 0 Z"
                         fill="none"
                         stroke="#231f20"
                         stroke-width="0.4"
                         id="path22" /><g
                         transform="translate(1.128,22.46)"
                         id="g190"><path
                           d="M 0,0 H 2.173 V 7.472 H -13.338 V 0 h 2.391 V 4.996 H 0 Z"
                           fill="none"
                           stroke="#231f20"
                           stroke-width="0.4"
                           id="path24" /><g
                           transform="translate(-9.249,0.957)"
                           id="g188"><path
                             d="M 0,0 H 2.216 V 1.607 H 0 Z"
                             fill="none"
                             stroke="#231f20"
                             stroke-width="0.4"
                             id="path26" /><g
                             transform="translate(5.339)"
                             id="g186"><path
                               d="M 0,0 H 2.216 V 1.607 H 0 Z"
                               fill="none"
                               stroke="#231f20"
                               stroke-width="0.4"
                               id="path28" /><g
                               transform="translate(-2.498,-0.782)"
                               id="g184"><path
                                 d="m 0,0 c 0,-0.774 -0.016,-1.164 0.956,-1.164 0.953,0 0.955,0.386 0.955,1.164"
                                 fill="none"
                                 stroke="#231f20"
                                 stroke-width="0.4"
                                 id="path30" /><g
                                 transform="translate(4.75,3.679)"
                                 id="g182"><path
                                   d="M 0,0 H -2.288"
                                   fill="none"
                                   stroke="#231f20"
                                   stroke-width="0.4"
                                   id="path32" /><g
                                   transform="translate(-5.339)"
                                   id="g180"><path
                                   d="M 0,0 H -2.288"
                                   fill="none"
                                   stroke="#231f20"
                                   stroke-width="0.4"
                                   id="path34" /><g
                                   transform="translate(4.069,-2.278)"
                                   id="g178"><path
                                   d="M 0,0 H 0.22902 V 0.36809 H 0 Z"
                                   fill="none"
                                   stroke="#231f20"
                                   stroke-width="0.4"
                                   id="path36" /><g
                                   transform="translate(-5.338)"
                                   id="g176"><path
                                   d="M 0,0 H 0.228 V 0.36809 H 0 Z"
                                   fill="none"
                                   stroke="#231f20"
                                   stroke-width="0.4"
                                   id="path38" /><g
                                   transform="translate(-43.739,-24.036)"
                                   id="g174"><path
                                   d="M 0,0 H -8.688 V -4.344 H -19.592 V 0 h 6.299 V 13.034 8.603 h -6.299 v 9.427 h 9.776 v 9.426 H 1.13 V 18.03 h 9.82 V 8.603 H 4.563 V 12.989 0 H 10.95 V -4.344 H 0 Z"
                                   fill="none"
                                   stroke="#231f20"
                                   stroke-width="0.4"
                                   id="path40" /><g
                                   transform="translate(1.13,22.46)"
                                   id="g172"><path
                                   d="M 0,0 H 2.174 V 7.472 H -13.337 V 0 h 2.391 V 4.996 H 0 Z"
                                   fill="none"
                                   stroke="#231f20"
                                   stroke-width="0.4"
                                   id="path42" /><g
                                   transform="translate(-9.248,0.957)"
                                   id="g170"><path
                                   d="M 0,0 H 2.216 V 1.607 H 0 Z"
                                   fill="none"
                                   stroke="#231f20"
                                   stroke-width="0.4"
                                   id="path44" /><g
                                   transform="translate(5.338)"
                                   id="g168"><path
                                   d="M 0,0 H 2.216 V 1.607 H 0 Z"
                                   fill="none"
                                   stroke="#231f20"
                                   stroke-width="0.4"
                                   id="path46" /><g
                                   transform="translate(-2.497,-0.782)"
                                   id="g166"><path
                                   d="M 0,0 C 0,-0.774 -0.016,-1.164 0.956,-1.164 1.909,-1.164 1.91,-0.778 1.91,0"
                                   fill="none"
                                   stroke="#231f20"
                                   stroke-width="0.4"
                                   id="path48" /><g
                                   transform="translate(4.75,3.489)"
                                   id="g164"><path
                                   d="M 0,0 H -2.288"
                                   fill="none"
                                   stroke="#231f20"
                                   stroke-width="0.4"
                                   id="path50" /><g
                                   transform="translate(-5.339)"
                                   id="g162"><path
                                   d="M 0,0 H -2.289"
                                   fill="none"
                                   stroke="#231f20"
                                   stroke-width="0.4"
                                   id="path52" /><g
                                   transform="translate(4.607,-6.53)"
                                   id="g160"><path
                                   d="M 0,0 H -6.123"
                                   fill="none"
                                   stroke="#231f20"
                                   stroke-width="0.4"
                                   id="path54" /><g
                                   transform="translate(-5.866,4.442)"
                                   id="g158"><path
                                   d="M 0,0 H 0.23099 V 0.36809 H 0 Z"
                                   fill="none"
                                   stroke="#231f20"
                                   stroke-width="0.4"
                                   id="path56" /><g
                                   transform="translate(5.338)"
                                   id="g156"><path
                                   d="M 0,0 H 0.23199 V 0.36809 H 0 Z"
                                   fill="none"
                                   stroke="#231f20"
                                   stroke-width="0.4"
                                   id="path58" /><g
                                   transform="translate(-49.086,-24.036)"
                                   id="g154"><path
                                   d="M 0,0 H -8.688 V -4.344 H -19.593 V 0 h 6.299 V 13.034 8.603 h -6.299 v 9.427 h 9.776 v 9.426 H 1.13 V 18.03 h 9.818 V 8.603 H 4.561 V 12.989 0 h 6.387 V -4.344 H 0 Z"
                                   fill="none"
                                   stroke="#231f20"
                                   stroke-width="0.4"
                                   id="path60" /><g
                                   transform="translate(1.13,22.46)"
                                   id="g152"><path
                                   d="m 0,0 h 2.173 v 7.472 h -15.51 V 0 h 2.39 V 4.996 H 0 Z"
                                   fill="none"
                                   stroke="#231f20"
                                   stroke-width="0.4"
                                   id="path62" /><g
                                   transform="translate(-52.005,-22.46)"
                                   id="g150"><path
                                   d="M 0,0 H -8.688 V -4.344 H -19.593 V 0 h 6.3 V 13.034 8.603 h -6.3 v 9.427 h 9.775 v 9.426 H 1.13 V 18.03 h 9.818 V 8.603 H 4.562 V 12.989 0 h 6.386 V -4.344 H 0 Z"
                                   fill="none"
                                   stroke="#231f20"
                                   stroke-width="0.4"
                                   id="path64" /><g
                                   transform="translate(1.13,22.46)"
                                   id="g148"><path
                                   d="M 0,0 H 2.172 V 7.472 H -13.337 V 0 h 2.389 V 4.996 H 0 Z"
                                   fill="none"
                                   stroke="#231f20"
                                   stroke-width="0.4"
                                   id="path66" /><g
                                   transform="translate(150.24,-2.867)"
                                   id="g146"><path
                                   d="M 0,0 H -6.125"
                                   fill="none"
                                   stroke="#231f20"
                                   stroke-width="0.4"
                                   id="path68" /><g
                                   transform="translate(50.874)"
                                   id="g144"><path
                                   d="M 0,0 H -6.125"
                                   fill="none"
                                   stroke="#231f20"
                                   stroke-width="0.4"
                                   id="path70" /><g
                                   transform="translate(-152.62)"
                                   id="g142"><path
                                   d="M 0,0 H -6.124"
                                   fill="none"
                                   stroke="#231f20"
                                   stroke-width="0.4"
                                   id="path72" /><g
                                   transform="translate(-50.874)"
                                   id="g140"><path
                                   d="M 0,0 H -6.125"
                                   fill="none"
                                   stroke="#231f20"
                                   stroke-width="0.4"
                                   id="path74" /><g
                                   transform="translate(-4.022,3.036)"
                                   id="g138"><path
                                   d="M 0,0 C 0,-0.774 -0.016,-1.164 0.955,-1.164 1.908,-1.164 1.91,-0.778 1.91,0"
                                   fill="none"
                                   stroke="#231f20"
                                   stroke-width="0.4"
                                   id="path76" /><g
                                   transform="translate(5.009,3.75)"
                                   id="g136"><path
                                   d="M 0,0 H -2.288"
                                   fill="none"
                                   stroke="#231f20"
                                   stroke-width="0.4"
                                   id="path78" /><g
                                   transform="translate(-0.26)"
                                   id="g134"><path
                                   d="M 0,0 H -2.288"
                                   fill="none"
                                   stroke="#231f20"
                                   stroke-width="0.4"
                                   id="path80" /><g
                                   transform="translate(-5.338)"
                                   id="g132"><path
                                   d="M 0,0 H -2.288"
                                   fill="none"
                                   stroke="#231f20"
                                   stroke-width="0.4"
                                   id="path82" /><g
                                   transform="translate(51.458,-3.75)"
                                   id="g130"><path
                                   d="m 0,0 c 0,-0.774 -0.016,-1.164 0.956,-1.164 0.955,0 0.956,0.386 0.956,1.164"
                                   fill="none"
                                   stroke="#231f20"
                                   stroke-width="0.4"
                                   id="path84" /><g
                                   transform="translate(5.01,3.75)"
                                   id="g128"><path
                                   d="M 0,0 H -2.288"
                                   fill="none"
                                   stroke="#231f20"
                                   stroke-width="0.4"
                                   id="path86" /><g
                                   transform="translate(-0.259)"
                                   id="g126"><path
                                   d="M 0,0 H -2.289"
                                   fill="none"
                                   stroke="#231f20"
                                   stroke-width="0.4"
                                   id="path88" /><g
                                   transform="translate(-5.339)"
                                   id="g124"><path
                                   d="M 0,0 H -2.288"
                                   fill="none"
                                   stroke="#231f20"
                                   stroke-width="0.4"
                                   id="path90" /><g
                                   transform="translate(4.08,-2.497)"
                                   id="g122"><path
                                   d="M 0,0 H 0.2314 V 0.36909 H 0 Z"
                                   fill="none"
                                   stroke="#231f20"
                                   stroke-width="0.4"
                                   id="path92" /><g
                                   transform="translate(146.3,-0.283)"
                                   id="g120"><path
                                   d="M 0,0 H 2.217 V 1.6075 H 0 Z"
                                   fill="none"
                                   stroke="#231f20"
                                   stroke-width="0.4"
                                   id="path94" /><g
                                   transform="translate(5.339,0.015)"
                                   id="g118"><path
                                   d="M 0,0 H 2.217 V 1.6074 H 0 Z"
                                   fill="none"
                                   stroke="#231f20"
                                   stroke-width="0.4"
                                   id="path96" /><g
                                   transform="translate(-150.41,1.601)"
                                   id="g116"><path
                                   d="m 0,0 c 0,-1.6 0.087,-1.608 -1.142,-1.608 -1.214,0 -1.074,0.015 -1.074,1.608 0,0 0.02,-0.553 1.065,-0.553 C 0,-0.553 0,0 0,0 Z"
                                   fill="none"
                                   stroke="#231f20"
                                   stroke-width="0.4"
                                   id="path98" /><g
                                   transform="translate(-6.565,-1.333)"
                                   id="g114"><path
                                   d="M 0,0 H 0.2305 V 0.36909 H 0 Z"
                                   fill="none"
                                   stroke="#231f20"
                                   stroke-width="0.4"
                                   id="path100" /><g
                                   transform="translate(1.225,1.333)"
                                   id="g112"><path
                                   d="m 0,0 c 0,-1.6 0.087,-1.608 -1.14,-1.608 -1.217,0 -1.075,0.015 -1.075,1.608 0,0 0.019,-0.553 1.065,-0.553 C 0,-0.553 0,0 0,0 Z"
                                   fill="none"
                                   stroke="#231f20"
                                   stroke-width="0.4"
                                   id="path102" /><g
                                   transform="translate(-45.53,0.002)"
                                   id="g110"><path
                                   d="m 0,0 c 0,-1.6 0.087,-1.607 -1.141,-1.607 -1.216,0 -1.076,0.015 -1.076,1.607"
                                   fill="none"
                                   stroke="#231f20"
                                   stroke-width="0.4"
                                   id="path104" /><g
                                   transform="translate(-5.339,-0.016)"
                                   id="g108"><path
                                   d="m 0,0 c 0,-1.6 0.086,-1.607 -1.14,-1.607 -1.217,0 -1.076,0.016 -1.076,1.607"
                                   fill="none"
                                   stroke="#231f20"
                                   stroke-width="0.4"
                                   id="path106" /></g></g></g></g></g></g></g></g></g></g></g></g></g></g></g></g></g></g></g></g></g></g></g></g></g></g></g></g></g></g></g></g></g></g></g></g></g></g></g></g></g></g></g></g></g></g></g></g></g></g></g><g
       transform="matrix(1.3333,0,0,-1.3333,20.737085,31.437715)"
       id="g214"><path
         d="m 0,0 c 0.179,-0.111 0.383,-0.209 0.478,-0.406 l 0.108,-0.159 c -0.189,-0.306 -0.4,-0.606 -0.652,-0.86 -0.182,0.173 -0.366,0.364 -0.471,0.598 -0.059,0.154 -0.265,0.364 -0.21,0.5 l 0.638,0.349 C -0.072,0.014 -0.036,0.007 0,0"
         fill="#231f20"
         id="path210" /><path
         d="m 0,0 c 0.179,-0.111 0.383,-0.209 0.478,-0.406 l 0.108,-0.159 c -0.189,-0.306 -0.4,-0.606 -0.652,-0.86 -0.182,0.173 -0.366,0.364 -0.471,0.598 -0.059,0.154 -0.265,0.364 -0.21,0.5 l 0.638,0.349 C -0.072,0.014 -0.036,0.007 0,0 Z"
         fill="none"
         stroke="#231f20"
         stroke-linecap="round"
         stroke-width="0.4"
         id="path212" /></g><g
       transform="matrix(1.3333,0,0,-1.3333,85.975454,30.277744)"
       id="g218"><path
         d="M 0,0 0.218,1.585 0.651,1.933 1.216,1.802 C 1.371,1.522 1.594,1.271 1.705,0.974 L 1.781,0.412 C 2.268,0.431 2.756,0.445 3.238,0.376 3.534,0.217 3.381,-0.264 3.271,-0.54 3.189,-0.852 2.875,-1.11 3.031,-1.449 3.052,-1.713 3.355,-1.803 3.514,-1.981 3.811,-2.221 4.056,-2.514 4.323,-2.781 4.294,-3.16 4.314,-3.566 4.081,-3.889 3.831,-4.123 3.473,-4.14 3.226,-3.893 2.916,-3.737 2.646,-3.524 2.424,-3.261 2.14,-2.967 1.857,-2.673 1.586,-2.369 1.287,-2.345 1.024,-2.394 0.895,-2.693 0.783,-2.848 0.574,-2.867 0.414,-2.951 0.318,-2.971 0.205,-3.097 0.131,-2.985 l -0.456,0.4 c -0.047,0.38 0.32,0.683 0.328,1.008 -0.174,0.282 -0.336,0.58 -0.642,0.739 -0.217,0.097 -0.449,0.391 -0.063,0.428 0.221,0.015 0.403,0.131 0.555,0.283 C -0.099,-0.085 -0.049,-0.042 0,0 Z"
         fill="none"
         stroke="#231f20"
         stroke-width="0.534"
         id="path216" /></g><g
       transform="matrix(1.3333,0,0,-1.3333,83.108859,29.144439)"
       id="g226"><path
         d="M 0,0 C -0.061,1.086 1.102,1.324 1.781,1.718 2.167,2.119 2.713,2.529 3.28,2.193"
         fill="none"
         stroke="#231f20"
         stroke-linecap="round"
         stroke-width="0.4"
         id="path220" /><g
         transform="translate(7.821,-3.672)"
         id="g224"><path
           d="M 0,0 C 0.079,-0.667 -0.333,-1.257 -0.717,-1.758"
           fill="none"
           stroke="#231f20"
           stroke-linecap="round"
           stroke-width="0.4"
           id="path222" /></g></g><g
       transform="matrix(1.3333,0,0,-1.3333,155.66704,34.850963)"
       id="g230"><path
         d="m 0,0 c -0.783,-0.106 -1.157,-0.872 -1.718,-1.319 -0.474,-0.337 -1.18,-0.746 -1.719,-0.316 -0.417,0.397 -0.671,1.094 -0.331,1.621 0.296,0.589 0.627,1.158 0.988,1.708 l -0.413,0.695 c -0.523,0.162 -1.216,0.094 -1.597,0.53 l -0.315,0.665 c 0.409,0.434 0.824,0.894 1.44,1.008 0.561,0.344 1.345,0.117 1.82,0.543 0.335,0.398 0.271,0.974 0.419,1.41 L -0.869,6.69 C -0.425,6.182 0.072,5.688 0.7,5.424 1.276,5.271 1.699,5.783 1.994,6.196 2.325,6.705 2.47,7.337 2.933,7.754 3.477,7.791 4.189,8.028 4.497,7.397 4.655,6.904 4.667,6.326 4.455,5.844 4.222,5.258 3.746,4.83 3.358,4.354 2.95,3.614 3.931,3.49 4.44,3.48 5.015,3.414 5.747,3.011 5.328,2.346 5.317,1.683 4.8,1.204 4.116,1.277 3.617,1.277 2.751,1.571 2.582,0.888 2.578,0.202 3.207,-0.266 3.32,-0.908 3.28,-1.575 2.369,-2.089 1.817,-1.646 1.235,-1.174 0.908,-0.42 0.199,-0.092 l -0.098,0.048 z"
         fill="none"
         stroke="#231f20"
         stroke-width="0.534"
         id="path228" /></g><g
       transform="matrix(1.3333,0,0,-1.3333,156.30703,32.757682)"
       id="g234"><path
         d="m 0,0 -0.325,0.629 -0.586,0.348 -0.13,0.607 0.518,0.588 C -0.261,2.185 0,2.199 0.261,2.215 0.62,1.947 0.982,1.682 1.319,1.387 1.39,1.359 1.352,1.307 1.328,1.257 L 1.107,0.782 C 0.895,0.666 0.673,0.567 0.468,0.442 L 0.13,0.021 C 0.087,0.014 0.044,0.006 0,0 Z"
         fill="none"
         stroke="#231f20"
         stroke-linecap="round"
         stroke-width="0.801"
         id="path232" /></g><g
       transform="matrix(1.3333,0,0,-1.3333,162.12022,37.517563)"
       id="g242"><path
         d="M 0,0 C -0.072,-0.195 -0.091,-0.392 -0.216,-0.587 -0.362,-0.791 -0.572,-0.972 -0.782,-1.065 -0.847,-1.08 -0.912,-1.094 -0.978,-1.108"
         fill="none"
         stroke="#231f20"
         stroke-linecap="round"
         stroke-width="0.4"
         id="path236" /><g
         transform="translate(-0.804,0.215)"
         id="g240"><path
           d="m 0,0 c -0.31,-0.207 -0.604,-0.378 -0.987,-0.534 -0.165,-0.063 -0.329,-0.129 -0.49,-0.203"
           fill="none"
           stroke="#231f20"
           stroke-linecap="round"
           stroke-width="0.4"
           id="path238" /></g></g><g
       transform="matrix(1.3333,0,0,-1.3333,223.63868,35.837605)"
       id="g246"><path
         d="m 0,0 c -0.62,-0.58 -1.154,-1.236 -1.576,-1.967 -0.455,-0.672 -1.198,-1.182 -2.034,-1.138 -0.613,0.082 -1.387,0.325 -1.265,1.101 0.093,0.734 0.304,1.494 0.73,2.108 0.312,0.629 1.374,0.711 1.269,1.542 -0.273,0.693 -1.318,0.373 -1.712,0.998 -0.437,0.568 -0.386,1.426 0.135,1.926 0.374,0.553 1.469,0.861 1.218,1.667 -0.472,0.536 -0.801,1.125 -0.982,1.816 -0.187,0.52 -0.215,1.207 -0.05,1.683 0.401,0.303 0.843,0.651 1.378,0.538 h 0.956 C -1.397,9.63 -0.376,9.054 -0.508,8.108 -0.949,7.213 0.259,6.657 0.912,7.193 1.613,7.89 2.444,8.434 3.292,8.938 4.073,9.238 4.917,9.643 5.762,9.343 6.523,9.13 6.61,8.19 6.207,7.619 5.761,6.848 4.864,6.458 4.436,5.68 4.253,4.858 4.711,4.048 5.075,3.337 5.433,2.642 5.657,1.618 5.076,0.985 4.317,0.439 3.676,1.341 3.04,1.609 2.163,1.547 2.013,0.428 2.26,-0.25 2.503,-0.839 2.976,-1.579 2.418,-2.165 2.134,-2.796 1.565,-3.233 0.853,-3.164 -0.142,-3.051 0.301,-1.87 0.261,-1.209 0.275,-0.796 0.253,-0.347 0,0 Z"
         fill="none"
         stroke="#231f20"
         stroke-width="0.534"
         id="path244" /></g><g
       transform="matrix(1.3333,0,0,-1.3333,224.87865,33.717658)"
       id="g250"><path
         d="M 0,0 -0.608,0.607 C -1.036,0.56 -1.462,0.507 -1.882,0.419 -2.074,0.377 -2.278,0.377 -2.443,0.262 L -2.867,0.043 c 0.209,0.279 0.44,0.547 0.64,0.835 l 0.488,0.859 -0.194,0.609 -1.173,0.195 0.891,0.348 c 0.014,0.231 0.029,0.462 0.042,0.695 0.199,0.047 0.395,0.119 0.595,0.15 0.397,-0.013 0.791,-0.027 1.187,-0.042 0.427,0.209 0.847,0.434 1.282,0.63 L 0.392,3.714 0.478,2.975 C 0.613,2.88 0.731,2.756 0.899,2.727 1.121,2.662 1.338,2.562 1.575,2.562 1.724,2.548 1.872,2.534 2.019,2.519 1.514,2.129 1.008,1.738 0.522,1.324 0.371,1.027 0.196,0.738 0.107,0.415 0.132,0.279 0.1,0.095 0,0 Z"
         fill="none"
         stroke="#231f20"
         stroke-width="0.667"
         id="path248" /></g><g
       transform="matrix(1.3333,0,0,-1.3333,233.05178,35.197621)"
       id="g270"><path
         d="M 0,0 C -0.319,-0.429 -0.701,-0.879 -1.257,-0.978"
         fill="none"
         stroke="#231f20"
         stroke-width="0.4"
         id="path252" /><g
         transform="translate(-7.296,-4.324)"
         id="g268"><path
           d="M 0,0 C -0.461,-0.41 -1.124,-0.825 -1.759,-0.586"
           fill="none"
           stroke="#231f20"
           stroke-width="0.4"
           id="path254" /><g
           transform="translate(-6.213,2.651)"
           id="g266"><path
             d="M 0,0 C -0.093,0.763 -0.221,1.793 0.607,2.214"
             fill="none"
             stroke="#231f20"
             stroke-width="0.4"
             id="path256" /><g
             transform="translate(0.217,6.993)"
             id="g264"><path
               d="M 0,0 C 0.297,0.428 0.679,0.825 1.173,1.021"
               fill="none"
               stroke="#231f20"
               stroke-width="0.4"
               id="path258" /><g
               transform="translate(13.119,4.214)"
               id="g262"><path
                 d="M 0,0 C 0.763,-0.048 1.5,-0.404 1.826,-1.13"
                 fill="none"
                 stroke="#231f20"
                 stroke-width="0.4"
                 id="path260" /></g></g></g></g></g><g
       transform="matrix(1.3333,0,0,-1.3333,278.11732,16.518088)"
       id="g274"><path
         d="m 0,0 7.038,-5.995 2.215,2.303 0.825,-3.302 12.165,7.081 -7.602,-7.168 2.475,-3.214 -3.997,-3.519 9.689,-4.736 -9.775,2.086 -2.824,-8.951 -0.737,9.645 -2.174,-2.91 1.13,3.692 -9.731,-3.91 7.734,8.255 -2.868,0.087 2.215,2.475 z"
         fill="none"
         stroke="#231f20"
         stroke-width="0.4"
         id="path272" /></g><g
       transform="matrix(1.3333,0,0,-1.3333,288.54372,26.251178)"
       id="g278"><path
         d="M 0,0 -0.128,-3.256 -0.607,-4.691 -1.43,-5.69 0.392,-5.169 2.217,-5.56 c 0,0 1.218,-1.042 1.26,-1.216 0.043,-0.174 0.219,-0.955 0.219,-0.955 l 0.261,2.953 1.127,1.131 0.782,0.303 -1.997,0.174 -0.565,0.738 0.131,0.999 0.216,0.523 -1.391,-0.827 -1.431,0.479 -0.48,0.867 -0.434,0.609 z"
         fill="none"
         stroke="#231f20"
         stroke-width="0.801"
         id="path276" /></g><g
       transform="matrix(1.3333,0,0,-1.3333,290.94366,30.237745)"
       id="g282"><path
         d="M 0,0 0.305,-0.109 0.379,-0.391 0,-0.642 l -0.283,0.262 0.261,0.303"
         fill="none"
         stroke="#231f20"
         stroke-linecap="round"
         stroke-width="0.534"
         id="path280" /></g><g
       transform="matrix(1.3333,0,0,-1.3333,307.66324,30.011084)"
       id="g350"><path
         d="M 0,0 C -0.204,0.968 -1.003,1.452 -1.87,1.738"
         fill="none"
         stroke="#231f20"
         stroke-width="0.4"
         id="path284" /><g
         transform="translate(0.694,0.565)"
         id="g348"><path
           d="M 0,0 C -0.355,0.909 -1.032,1.891 -2.128,1.867"
           fill="none"
           stroke="#231f20"
           stroke-width="0.4"
           id="path286" /><g
           transform="translate(-0.608,-4.345)"
           id="g346"><path
             d="M 0,0 C 0.073,-0.988 -0.094,-2.109 -1.129,-2.519"
             fill="none"
             stroke="#231f20"
             stroke-width="0.4"
             id="path288" /><g
             transform="translate(1.26,0.564)"
             id="g344"><path
               d="M 0,0 C 0.224,-1.282 0.337,-2.869 -0.739,-3.823"
               fill="none"
               stroke="#231f20"
               stroke-width="0.4"
               id="path290" /><g
               transform="translate(0.609,-11.077)"
               id="g342"><path
                 d="M 0,0 C -0.022,-0.925 -0.51,-1.879 -1.434,-2.173"
                 fill="none"
                 stroke="#231f20"
                 stroke-width="0.4"
                 id="path292" /><g
                 transform="translate(1.259,-0.13)"
                 id="g340"><path
                   d="M 0,0 C 0.221,-1.461 -0.575,-2.959 -2.086,-3.259"
                   fill="none"
                   stroke="#231f20"
                   stroke-width="0.4"
                   id="path294" /><g
                   transform="translate(-25.024,15.378)"
                   id="g338"><path
                     d="M 0,0 C -0.709,0.957 -0.556,1.705 0.176,2.607"
                     fill="none"
                     stroke="#231f20"
                     stroke-width="0.4"
                     id="path296" /><g
                     transform="translate(-0.912,3.302)"
                     id="g336"><path
                       d="M 0,0 C -0.995,-0.749 -2.065,-2.061 -0.956,-3.214"
                       fill="none"
                       stroke="#231f20"
                       stroke-width="0.4"
                       id="path298" /><g
                       transform="translate(-4.867,-20.635)"
                       id="g334"><path
                         d="M 0,0 C -0.858,0.268 -1.476,0.727 -1.736,1.607"
                         fill="none"
                         stroke="#231f20"
                         stroke-width="0.4"
                         id="path300" /><g
                         transform="translate(-0.606,-0.694)"
                         id="g332"><path
                           d="M 0,0 C -0.866,0.118 -1.792,0.225 -2.129,1.173"
                           fill="none"
                           stroke="#231f20"
                           stroke-width="0.4"
                           id="path302" /><g
                           transform="translate(-20.071,27.195)"
                           id="g330"><path
                             d="M 0,0 C 1.041,0.087 1.698,-0.999 1.737,-1.911"
                             fill="none"
                             stroke="#231f20"
                             stroke-width="0.4"
                             id="path304" /><g
                             transform="translate(44.616,9.21)"
                             id="g328"><path
                               d="M 0,0 C 0.122,1.309 -0.758,1.458 -1.781,1.564"
                               fill="none"
                               stroke="#231f20"
                               stroke-width="0.4"
                               id="path306" /><g
                               transform="translate(1.347,1)"
                               id="g326"><path
                                 d="M 0,0 C -0.429,0.925 -1.164,2.086 -2.346,1.955"
                                 fill="none"
                                 stroke="#231f20"
                                 stroke-width="0.4"
                                 id="path308" /><g
                                 transform="translate(-18.289,0.129)"
                                 id="g324"><path
                                   d="M 0,0 C -0.704,-0.299 -1.517,-0.427 -1.783,-1.26"
                                   fill="none"
                                   stroke="#231f20"
                                   stroke-width="0.4"
                                   id="path310" /><g
                                   transform="translate(0.043,1.304)"
                                   id="g322"><path
                                   d="M 0,0 C -1.225,0.047 -2.047,-0.818 -2.608,-1.782"
                                   fill="none"
                                   stroke="#231f20"
                                   stroke-width="0.4"
                                   id="path312" /><g
                                   transform="translate(-56.912,-37.493)"
                                   id="g320"><path
                                   d="M 0,0 C -0.704,0.228 -1.304,0.918 -1.173,1.694"
                                   fill="none"
                                   stroke="#231f20"
                                   stroke-width="0.4"
                                   id="path314" /><g
                                   transform="translate(24.329,35.71)"
                                   id="g318"><path
                                   d="M 0,0 C -0.061,0.844 -0.482,1.912 -1.521,1.782"
                                   fill="none"
                                   stroke="#231f20"
                                   stroke-width="0.4"
                                   id="path316" /></g></g></g></g></g></g></g></g></g></g></g></g></g></g></g></g></g><g
       transform="matrix(1.3333,0,0,-1.3333,255.41122,36.117598)"
       id="g356"><path
         d="M 0,0 C 0,-1.086 0.879,-1.965 1.965,-1.965 3.05,-1.965 3.931,-1.086 3.931,0 3.931,1.086 3.05,1.967 1.965,1.967 0.879,1.967 0,1.086 0,0"
         fill="#231f20"
         id="path352" /><path
         d="M 0,0 C 0,-1.086 0.879,-1.965 1.965,-1.965 3.05,-1.965 3.931,-1.086 3.931,0 3.931,1.086 3.05,1.967 1.965,1.967 0.879,1.967 0,1.086 0,0 Z"
         fill="none"
         stroke="#231f20"
         stroke-linecap="round"
         stroke-width="0.48"
         id="path354" /></g><g
       transform="matrix(1.3333,0,0,-1.3333,187.58625,36.117598)"
       id="g362"><path
         d="m 0,0 c 0,-1.086 0.879,-1.965 1.966,-1.965 1.085,0 1.963,0.879 1.963,1.965 0,1.086 -0.878,1.967 -1.963,1.967 C 0.879,1.967 0,1.086 0,0"
         fill="#231f20"
         id="path358" /><path
         d="m 0,0 c 0,-1.086 0.879,-1.965 1.966,-1.965 1.085,0 1.963,0.879 1.963,1.965 0,1.086 -0.878,1.967 -1.963,1.967 C 0.879,1.967 0,1.086 0,0 Z"
         fill="none"
         stroke="#231f20"
         stroke-linecap="round"
         stroke-width="0.48"
         id="path360" /></g><g
       transform="matrix(1.3333,0,0,-1.3333,119.74794,36.117598)"
       id="g368"><path
         d="M 0,0 C 0,-1.086 0.879,-1.965 1.965,-1.965 3.051,-1.965 3.93,-1.086 3.93,0 3.93,1.086 3.051,1.967 1.965,1.967 0.879,1.967 0,1.086 0,0"
         fill="#231f20"
         id="path364" /><path
         d="M 0,0 C 0,-1.086 0.879,-1.965 1.965,-1.965 3.051,-1.965 3.93,-1.086 3.93,0 3.93,1.086 3.051,1.967 1.965,1.967 0.879,1.967 0,1.086 0,0 Z"
         fill="none"
         stroke="#231f20"
         stroke-linecap="round"
         stroke-width="0.48"
         id="path366" /></g><g
       transform="matrix(1.3333,0,0,-1.3333,51.922972,36.117598)"
       id="g374"><path
         d="m 0,0 c 0,-1.086 0.88,-1.965 1.965,-1.965 1.086,0 1.966,0.879 1.966,1.965 0,1.086 -0.88,1.967 -1.966,1.967 C 0.88,1.967 0,1.086 0,0"
         fill="#231f20"
         id="path370" /><path
         d="m 0,0 c 0,-1.086 0.88,-1.965 1.965,-1.965 1.086,0 1.966,0.879 1.966,1.965 0,1.086 -0.88,1.967 -1.966,1.967 C 0.88,1.967 0,1.086 0,0 Z"
         fill="none"
         stroke="#231f20"
         stroke-linecap="round"
         stroke-width="0.48"
         id="path372" /></g></g></svg>
