<svg width="323.34" height="63.584" version="1.1" viewBox="0 0 323.34 63.584" xml:space="preserve" xmlns="http://www.w3.org/2000/svg"><g transform="matrix(1.3333 0 0 -1.3333 -225.49 315.9)"><path d="m180.69 220.13v-0.18c-0.78646-0.6869-0.72415-1.4031-0.98903-2.34-0.45204-1.5989-1.1773-2.7409-0.95764-4.5 0.10231-0.81936 0.58352-1.5181 0.66792-2.34 0.21065-2.0515 0.64328-4.7286 3.0788-5.22v0.18c-1.6438 1.1587-2.5032 2.8607-2.52 4.86l1.26-0.54v0.18c-2.4261 1.5304-2.2401 3.9422-1.26 6.3h0.18l1.26-1.26c-0.69658 1.3634-1.5354 3.5239 0.18 4.5-1.3685 2.5313 0.043 3.705 2.7 4.32l-0.36-0.72 5.94 1.26v0.18l-3.6 0.18c2.0314 1.7576 3.5861 1.7288 6.12 1.62v0.18l-1.26 0.36c1.2362 1.2467 2.0779 3.2067 3.96 3.5132 2.8699 0.46742 7.1136-4.0895 6.5641-6.9332-0.50652-2.6207-2.5992-1.9123-4.217-3.1604-1.4302-1.1034-2.4322-2.862-3.607-4.2196 0.73753 2.2666 0.29565 3.3676-0.36 5.58h-0.18c-0.062-1.4486 0.54286-2.1173 0.72598-3.42 0.136-0.96766-0.58446-1.8414-0.27348-2.88 0.21859-0.72997 1.0418-1.2268 1.1386-1.98 0.10267-0.7992-0.80375-1.4123-0.97042-2.16-0.2037-0.91404 0.79328-1.647 0.41723-2.5193-0.45461-1.0544-1.8388-1.5651-2.8379-1.9188-2.3698-0.83898-4.657-1.6816-7.2-1.6819v-0.18c2.2463-0.41706 4.1178 0.60588 6.3 0.9 0-2.029 0.0254-3.9568 0.52112-5.94 0.3602-1.4413 1.2226-3.4033 0.50166-4.8591-1.6008-3.2326-5.7106 0.99576-6.3988 2.8791-0.71933 1.9688 0.78914 4.1285 0.87597 6.12-1.3565-2.4957-2.1822-5.425-0.52112-7.92 1.0497-1.5766 4.3604-4.0795 6.1643-2.0891 2.5579 2.8228-1.6504 7.979-0.70515 11.262 0.49592 1.7222 3.2067 1.3739 3.8364 3.2479 0.34445 1.0249-0.36891 1.7298-0.27347 2.6993 0.0883 0.8964 0.89692 1.5588 0.78028 2.52-0.14258 1.1751-1.2404 1.6439-0.49388 2.88 0.79317 1.3132 2.124 3.0148 3.4526 3.8056 0.96102 0.57199 1.9915 0.21742 2.8611 1.074 3.083 3.0368-0.2565 7.5416-3.0411 9.2564-1.5356 0.94564-4.8327 1.9886-6.1826 0.24458-0.90754-1.1724-0.4961-2.7283-1.9182-3.6068-0.76667-0.4736-1.7301-0.46883-2.5192-0.9121-0.9443-0.53044-1.6955-1.436-2.7-1.8518-0.9965-0.41246-2.0826-0.44151-3.0599-0.95832-1.353-0.71554-2.2685-2.5433-1.0801-3.8115m217.44-14.58v0.18c0.7866 0.68688 0.7236 1.4031 0.9882 2.34 0.4536 1.5989 1.179 2.7409 0.9576 4.5-0.1008 0.81936-0.5832 1.5181-0.6678 2.34-0.2106 2.0514-0.6426 4.7286-3.078 5.22v-0.18c1.6434-1.1587 2.5038-2.8608 2.52-4.86l-1.26 0.54v-0.18c2.4264-1.5304 2.2392-3.9422 1.26-6.3h-0.18l-1.26 1.26c0.6966-1.3633 1.5354-3.5239-0.18-4.5 1.368-2.5313-0.0432-3.7049-2.7-4.32l0.36 0.72-5.94-1.26v-0.18l3.6-0.18c-2.0322-1.7577-3.5856-1.7287-6.12-1.62v-0.18l1.26-0.36c-1.2366-1.2467-2.0772-3.2067-3.96-3.5132-2.8692-0.46746-7.1136 4.0894-6.5646 6.9332 0.5076 2.6208 2.5992 1.9123 4.2174 3.1604 1.431 1.1034 2.4318 2.862 3.6072 4.2196-0.738-2.2666-0.2952-3.3676 0.36-5.58h0.18c0.0612 1.4486-0.5436 2.1173-0.7254 3.42-0.1368 0.96768 0.5832 1.8414 0.2736 2.88-0.2196 0.7299-1.0422 1.2269-1.1394 1.98-0.1026 0.7992 0.8046 1.4123 0.9702 2.16 0.2034 0.91408-0.7938 1.6471-0.4176 2.5193 0.4554 1.0545 1.8396 1.565 2.8386 1.9188 2.3706 0.83898 4.6566 1.6817 7.2 1.6819v0.18c-2.2464 0.41702-4.1184-0.6059-6.3-0.9 0 2.029-0.0252 3.9568-0.522 5.94-0.36 1.4412-1.2222 3.4033-0.5004 4.8592 1.6002 3.2326 5.7096-0.99578 6.399-2.8792 0.7182-1.9689-0.7902-4.1284-0.8766-6.12 1.3572 2.4956 2.1816 5.4251 0.522 7.92-1.0512 1.5766-4.3614 4.0796-6.165 2.089-2.5578-2.8226 1.6506-7.979 0.7056-11.262-0.4968-1.7222-3.2076-1.374-3.8376-3.2479-0.3438-1.025 0.369-1.7298 0.2736-2.6993-0.0882-0.8964-0.8964-1.5588-0.7794-2.52 0.1422-1.1752 1.2402-1.6439 0.4932-2.88-0.7938-1.3133-2.124-3.0148-3.4524-3.8056-0.9612-0.57204-1.9908-0.21744-2.862-1.0741-3.0816-3.0368 0.2574-7.5416 3.042-9.2563 1.5354-0.94572 4.833-1.9886 6.183-0.24462 0.9072 1.1725 0.495 2.7283 1.917 3.6068 0.7668 0.47358 1.7316 0.46872 2.52 0.91206 0.945 0.53046 1.6956 1.436 2.7 1.8518 0.9972 0.41238 2.0826 0.44154 3.06 0.95832 1.3536 0.7155 2.268 2.5432 1.08 3.8115m-204.3 18.36h0.18l1.44 3.96c-2.2289-0.62415-1.8834-2.1686-1.62-3.96m103.14-18.9c-1.7593-1.2391-2.9218-2.4723-5.22-2.52l0.72 1.44h-0.18c-1.4855-2.5684-3.8718-2.248-6.3-1.44v0.36l1.26 1.08c-1.5606-0.5202-3.2161-1.3126-4.5 0.18-0.5202-0.22716-1.0442-0.6804-1.62-0.73782-1.607-0.15984-2.4116 2.2239-2.7 3.4378l0.72-0.18-1.44 5.58h-0.18v-3.24c-1.7273 1.8101-1.9224 3.5473-1.62 5.94h-0.18l-0.36-1.08c-1.2704 1.2434-3.2546 2.0293-3.5183 3.96-0.41724 3.057 4.3146 7.209 7.3053 6.3885 2.1031-0.57703 1.6418-2.2227 2.5146-3.6885 0.89244-1.4986 2.9394-3.0384 4.4984-3.78v-0.18c-1.8374 0.27522-2.1811 0.52974-3.96-0.0742-0.66672-0.22633-1.2008 6.7e-4 -1.62-0.64584 1.2137 0.13558 2.2968 0.68056 3.42 0.81027 0.92448 0.10678 1.7395-0.62206 2.7-0.37152 0.84834 0.22129 1.4182 1.3156 2.34 1.2428 0.80929-0.064 1.3437-0.90489 2.16-1.0071 0.85482-0.10701 1.4857 0.82501 2.3373 0.48375 0.96246-0.38565 1.3802-1.5427 1.7516-2.4182 0.9927-2.3405 1.8495-5.0053 1.8511-7.56h0.18l-0.9 6.3c2.1188-0.3933 4.414 0.0842 6.48 0.60732 1.2197 0.30888 2.7148 0.93256 3.96 0.44602 3.6196-1.4142-0.42066-5.5397-2.34-6.3905-2.0221-0.89658-4.0538 0.61434-6.12 0.65718 2.506-1.2145 5.2654-2.0709 7.74-0.40518 1.6088 1.0831 4.0851 4.4685 1.9415 6.2278-3.0402 2.4954-7.877-2.0104-11.294-0.6741-1.6169 0.63248-1.2267 3.1544-3.0679 3.734-1.008 0.3173-1.7554-0.32877-2.6998-0.2607-0.90324 0.0651-1.5368 0.79936-2.52 0.71597-1.5653-0.13275-1.8549-1.1746-3.42-0.0786-1.0777 0.75464-2.5607 1.8287-3.224 2.9815-0.95724 1.6638-0.40806 3.2313-2.716 3.9494-4.5868 1.4271-9.1753-4.1878-8.8004-8.4501 0.23382-2.6586 3.1594-1.7392 4.3538-3.4279 0.55998-0.79164 0.55818-1.8432 1.0112-2.6921 0.51408-0.963 1.4839-1.6981 1.894-2.7 0.53658-1.3113 0.41886-2.7931 1.4566-3.9008 1.2494-1.3334 2.2738-0.39762 3.6848-0.73008 1.5019-0.3537 3.0042-1.269 4.5-1.4558 1.7114-0.21384 2.9027 0.46368 4.5 0.66276 2.1668 0.27 4.433 0.43974 5.22 2.9039m-105.66 19.26 1.44-1.44c-0.22543 0.79587-0.66445 1.1754-1.44 1.44m197.64-1.08 0.18-0.18 3.24 0.54c-0.9342 0.70835-2.8116 0.75418-3.42-0.36m-206.64-3.42v-0.18l6.66-0.18c-1.1014 2.2389-4.8328 0.97976-6.66 0.36m213.48-0.18 0.72-2.16h0.18c-0.0108 0.93204-0.1674 1.547-0.9 2.16m-214.02-1.26c-0.44588-1.0594-0.20041-1.7351 0.36-2.7h0.18l-0.54 2.7m92.88-0.18c0.477-2.3638 2.1829-1.8812 3.96-1.8l-2.16 0.58277-1.8 1.2172m113.04-2.7c0.504-0.91271 1.584-0.78064 2.52-0.66861 2.1222 0.25371 4.167 0.86029 6.3 1.0286-1.6776 1.0047-4.8096-0.0825-6.66-0.28098-0.738-0.0791-1.4256 0.0807-2.16-0.079m-204.48-0.54v-0.18l7.2-0.18c0.0141 0.89849-0.7708 1.2477-1.62 1.1751-1.8822-0.16085-3.6786-0.80987-5.58-0.81513m95.04-1.08 1.44 1.62c-0.83988-0.28813-1.2634-0.74727-1.44-1.62m118.62 0.72-0.54-2.88c1.0296 0.51948 1.2258 1.9744 0.54 2.88m-215.1-3.42h0.18l0.54 2.88c-1.1022-0.55584-1.0354-1.813-0.72-2.88m110.16 2.7c-1.2733-2.3861 0.40086-6.2942 0.72-8.82h0.18l-0.48852 6.48-0.41148 2.34m-4.32-0.54c-1.733-1.9503-0.0488-5.015 0-7.38h0.18l-0.16578 4.86-0.0142 2.52m12.42-0.72 0.18-3.42c0.95544 0.61938 0.61038 2.5256 0.18 3.42h-0.36m-17.1-0.9c-2.0259-1.8173-0.54558-4.3884-0.36-6.66h0.36l-0.33606 3.96 0.33606 2.7m105.48-0.54c-0.0144-0.89856 0.7704-1.2478 1.62-1.1752 1.8828 0.16092 3.6792 0.81 5.58 0.81522-1.7892 1.2753-5.0274-0.15876-7.2 0.36m-206.1-1.26v-0.18c2.4761-0.45972 6.3731 8e-3 8.82 0.54-0.5033 0.91278-1.5834 0.78066-2.52 0.6687-2.1213-0.2538-4.1672-0.8604-6.3-1.0287m214.2 0.18 0.36-2.7h0.18c0.4428 1.0499 0.2772 1.8898-0.54 2.7m-214.38-1.8c0.0104-0.93204 0.16805-1.5471 0.9-2.16l-0.9 2.16m207.72-1.98c1.1016-2.2388 4.833-0.97974 6.66-0.36l-3.96-0.14742-2.7 0.50742m-95.58-1.26v-0.18c0.84942-0.207 1.4188 0.0677 1.98 0.72l-1.98-0.54m-5.76 0.18c0.40968-1.3799 1.7404-1.044 2.88-0.9l-2.88 0.9m-4.32-0.54c0.80622-0.91044 1.9049-0.64566 2.52 0.36l-2.52-0.36m101.88-1.8c0.225-0.79596 0.6642-1.1754 1.44-1.44l-1.44 1.44m-199.62-0.72v-0.18c1.1195-0.3339 2.7655-0.65844 3.42 0.54l-0.18 0.18-3.24-0.54m198.36-0.36-1.44-3.96c1.9602 0.549 2.3418 2.3011 1.44 3.96z" fill="#161616"/></g></svg>
