<svg width="312.59" height="46.243" version="1.1" viewBox="0 0 312.59 46.243" xml:space="preserve" xmlns="http://www.w3.org/2000/svg"><g transform="matrix(1.3333 0 0 -1.3333 -227.88 909.76)"><g transform="translate(394.2 652.18)"><path d="m0 0h-8.69v-4.344h-10.903v4.344h6.298v13.034-4.431h-6.298v9.427h9.774v9.427h10.947v-9.427h9.819v-9.427h-6.386v4.387-12.99h6.386v-4.344h-10.947z" fill="none" stroke="#231f20" stroke-width=".4"/><g transform="translate(1.128,22.462)"><path d="m0 0h2.174v7.473h-15.51v-7.473h2.389v4.996h10.947z" fill="none" stroke="#231f20" stroke-width=".4"/><g transform="translate(-9.249,1.354)"><path d="m0 0h2.217v1.208h-2.217z" fill="none" stroke="#231f20" stroke-width=".4"/><g transform="translate(5.339)"><path d="m0 0h2.217v1.208h-2.217z" fill="none" stroke="#231f20" stroke-width=".4"/><g transform="translate(-2.497,-1.182)"><path d="m0 0c0-0.773-0.015-1.163 0.955-1.163 0.954 0 0.955 0.387 0.955 1.163" fill="none" stroke="#231f20" stroke-width=".4"/><g transform="translate(5.009,3.751)"><path d="m0 0h-2.288" fill="none" stroke="#231f20" stroke-width=".4"/><g transform="translate(-.258)"><path d="m0 0h-2.289" fill="none" stroke="#231f20" stroke-width=".4"/><g transform="translate(-5.34)"><path d="m0 0h-2.289" fill="none" stroke="#231f20" stroke-width=".4"/><g transform="translate(5.444,-4.793)"><path d="m0 0s3e-3 -2.657-4.007-2.657c-3.825 0-3.825 2.657-3.825 2.657s-0.031-4.054 3.763-4.054c4.039 0 4.069 4.054 4.069 4.054z" fill="none" stroke="#231f20" stroke-width=".4"/><g transform="translate(.554 -.431)"><path d="m0 0-0.368 0.77-0.784-0.032" fill="none" stroke="#231f20" stroke-width=".4"/><path d="m0 0-0.368 0.77-0.784-0.032" fill="none" stroke="#231f20" stroke-width=".4"/><g transform="translate(-9.021)"><path d="m0 0 0.368 0.77 0.783-0.032" fill="none" stroke="#231f20" stroke-width=".4"/><g transform="translate(7.102,3.072)"><path d="m0 0h0.231v0.36961h-0.231z" fill="none" stroke="#231f20" stroke-width=".4"/><g transform="translate(-5.338 -.014)"><path d="m0 0h0.23099v0.36816h-0.23099z" fill="none" stroke="#231f20" stroke-width=".4"/><g transform="translate(-43.747,-24.22)"><path d="m0 0h-8.691v-4.344h-10.903v4.344h6.299v13.034-4.431h-6.299v9.427h9.775v9.427h10.947v-9.427h9.819v-9.427h-6.387v4.387-12.99h6.387v-4.344h-10.947z" fill="none" stroke="#231f20" stroke-width=".4"/><g transform="translate(1.128,22.462)"><path d="m0 0h2.173v7.473h-15.511v-7.473h2.391v4.996h10.947z" fill="none" stroke="#231f20" stroke-width=".4"/><g transform="translate(-9.249 .956)"><path d="m0 0h2.216v1.6064h-2.216z" fill="none" stroke="#231f20" stroke-width=".4"/><g transform="translate(5.339)"><path d="m0 0h2.216v1.6064h-2.216z" fill="none" stroke="#231f20" stroke-width=".4"/><g transform="translate(-2.498 -.783)"><path d="m0 0c0-0.773-0.016-1.163 0.956-1.163 0.953 0 0.955 0.387 0.955 1.163" fill="none" stroke="#231f20" stroke-width=".4"/><g transform="translate(4.75,3.68)"><path d="m0 0h-2.288" fill="none" stroke="#231f20" stroke-width=".4"/><g transform="translate(-5.339)"><path d="m0 0h-2.288" fill="none" stroke="#231f20" stroke-width=".4"/><g transform="translate(4.069,-2.278)"><path d="m0 0h0.22902v0.36818h-0.22902z" fill="none" stroke="#231f20" stroke-width=".4"/><g transform="translate(-5.338)"><path d="m0 0h0.228v0.36818h-0.228z" fill="none" stroke="#231f20" stroke-width=".4"/><g transform="translate(6.312,-4.051)"><path d="m0 0s-0.802-1.032-3.453-1.032c-2.684 0-3.455 1.042-3.455 1.042" fill="none" stroke="#231f20" stroke-width=".4"/><g transform="translate(-50.051,-19.986)"><path d="m0 0h-8.688v-4.344h-10.904v4.344h6.299v13.034-4.431h-6.299v9.427h9.776v9.427h10.946v-9.427h9.82v-9.427h-6.387v4.387-12.99h6.387v-4.344h-10.95z" fill="none" stroke="#231f20" stroke-width=".4"/><g transform="translate(1.13,22.462)"><path d="m0 0h2.174v7.473h-15.511v-7.473h2.391v4.996h10.946z" fill="none" stroke="#231f20" stroke-width=".4"/><g transform="translate(-9.248 .956)"><path d="m0 0h2.216v1.6064h-2.216z" fill="none" stroke="#231f20" stroke-width=".4"/><g transform="translate(5.338)"><path d="m0 0h2.216v1.6064h-2.216z" fill="none" stroke="#231f20" stroke-width=".4"/><g transform="translate(-2.497 -.783)"><path d="m0 0c0-0.773-0.016-1.163 0.956-1.163 0.953 0 0.954 0.387 0.954 1.163" fill="none" stroke="#231f20" stroke-width=".4"/><g transform="translate(4.75,3.49)"><path d="m0 0h-2.288" fill="none" stroke="#231f20" stroke-width=".4"/><g transform="translate(-5.339)"><path d="m0 0h-2.289" fill="none" stroke="#231f20" stroke-width=".4"/><g transform="translate(4.607,-6.53)"><path d="m0 0h-6.123" fill="none" stroke="#231f20" stroke-width=".4"/><g transform="translate(-5.866,4.443)"><path d="m0 0h0.23099v0.36818h-0.23099z" fill="none" stroke="#231f20" stroke-width=".4"/><g transform="translate(5.338)"><path d="m0 0h0.23199v0.36818h-0.23199z" fill="none" stroke="#231f20" stroke-width=".4"/><g transform="translate(-49.086,-24.036)"><path d="m0 0h-8.688v-4.344h-10.905v4.344h6.299v13.034-4.431h-6.299v9.427h9.776v9.427h10.947v-9.427h9.818v-9.427h-6.387v4.387-12.99h6.387v-4.344h-10.948z" fill="none" stroke="#231f20" stroke-width=".4"/><g transform="translate(1.13,22.462)"><path d="m0 0h2.173v7.473h-15.51v-7.473h2.39v4.996h10.947z" fill="none" stroke="#231f20" stroke-width=".4"/><g transform="translate(-9.249 .956)"><path d="m0 0h2.2158v1.6064h-2.2158z" fill="none" stroke="#231f20" stroke-width=".4"/><g transform="translate(5.339)"><path d="m0 0h2.2158v1.6064h-2.2158z" fill="none" stroke="#231f20" stroke-width=".4"/><g transform="translate(-2.497 -.783)"><path d="m0 0c0-0.773-0.016-1.163 0.954-1.163 0.955 0 0.957 0.387 0.957 1.163" fill="none" stroke="#231f20" stroke-width=".4"/><g transform="translate(4.997,3.292)"><path d="m0 0-2.254 0.397" fill="none" stroke="#231f20" stroke-width=".4"/><g transform="translate(-5.873 .397)"><path d="m0 0-2.253-0.397" fill="none" stroke="#231f20" stroke-width=".4"/><g transform="translate(4.856,-7.799)"><path d="m0 0s-1.082 0.792-3.064 0.792c-1.743 0-3.06-0.792-3.06-0.792" fill="none" stroke="#231f20" stroke-width=".4"/><g transform="translate(-5.83,5.512)"><path d="m0 0h0.2305v0.36818h-0.2305z" fill="none" stroke="#231f20" stroke-width=".4"/><g transform="translate(5.339)"><path d="m0 0h0.22951v0.36818h-0.22951z" fill="none" stroke="#231f20" stroke-width=".4"/><g transform="translate(-49.087,-24.036)"><path d="m0 0h-8.688v-4.344h-10.905v4.344h6.3v13.034-4.431h-6.3v9.427h9.775v9.427h10.948v-9.427h9.818v-9.427h-6.386v4.387-12.99h6.386v-4.344h-10.948z" fill="none" stroke="#231f20" stroke-width=".4"/><g transform="translate(1.13,22.462)"><path d="m0 0h2.172v7.473h-15.509v-7.473h2.389v4.996h10.948z" fill="none" stroke="#231f20" stroke-width=".4"/><g transform="translate(-9.249 .956)"><path d="m0 0h2.2158v1.6064h-2.2158z" fill="none" stroke="#231f20" stroke-width=".4"/><g transform="translate(5.339)"><path d="m0 0h2.2168v1.6064h-2.2168z" fill="none" stroke="#231f20" stroke-width=".4"/><g transform="translate(-2.497 -.783)"><path d="m0 0c0-0.773-0.016-1.163 0.955-1.163 0.954 0 0.955 0.387 0.955 1.163" fill="none" stroke="#231f20" stroke-width=".4"/><g transform="translate(4.862,2.92)"><path d="m0 0-1.98 1.144" fill="none" stroke="#231f20" stroke-width=".4"/><g transform="translate(-5.873,1.144)"><path d="m0 0-1.98-1.144" fill="none" stroke="#231f20" stroke-width=".4"/><g transform="translate(5.345,-9.459)"><path d="m0 0s-1.002 1.912-3.414 1.912c-2.299 0-3.401-1.912-3.401-1.912" fill="none" stroke="#231f20" stroke-width=".4"/><g transform="translate(-6.183,6.344)"><path d="m0 0h0.2305v0.3672h-0.2305z" fill="none" stroke="#231f20" stroke-width=".4"/><g transform="translate(5.338)"><path d="m0 0h0.23051v0.3672h-0.23051z" fill="none" stroke="#231f20" stroke-width=".4"/></g></g></g></g></g></g></g></g></g></g></g></g></g></g></g></g></g></g></g></g></g></g></g></g></g></g></g></g></g></g></g></g></g></g></g></g></g></g></g></g></g></g></g></g></g></g></g></g></g></g></g></g></g><g transform="translate(362.48 658.59)"><path d="m0 0c0-1.086 0.879-1.966 1.965-1.966 1.085 0 1.966 0.88 1.966 1.966s-0.881 1.967-1.966 1.967c-1.086 0-1.965-0.881-1.965-1.967" fill="#231f20"/><path d="m0 0c0-1.085 0.879-1.966 1.965-1.966 1.085 0 1.966 0.881 1.966 1.966 0 1.086-0.881 1.967-1.966 1.967-1.086 0-1.965-0.881-1.965-1.967z" fill="none" stroke="#231f20" stroke-linecap="round" stroke-width=".48"/></g><g transform="translate(311.6 658.59)"><path d="m0 0c0-1.086 0.879-1.966 1.966-1.966 1.085 0 1.963 0.88 1.963 1.966s-0.878 1.967-1.963 1.967c-1.087 0-1.966-0.881-1.966-1.967" fill="#231f20"/><path d="m0 0c0-1.085 0.879-1.966 1.966-1.966 1.085 0 1.963 0.881 1.963 1.966 0 1.086-0.878 1.967-1.963 1.967-1.087 0-1.966-0.881-1.966-1.967z" fill="none" stroke="#231f20" stroke-linecap="round" stroke-width=".48"/></g><g transform="translate(260.73 658.59)"><path d="m0 0c0-1.086 0.879-1.966 1.965-1.966s1.965 0.88 1.965 1.966-0.879 1.967-1.965 1.967-1.965-0.881-1.965-1.967" fill="#231f20"/><path d="m0 0c0-1.085 0.879-1.966 1.965-1.966s1.965 0.881 1.965 1.966c0 1.086-0.879 1.967-1.965 1.967s-1.965-0.881-1.965-1.967z" fill="none" stroke="#231f20" stroke-linecap="round" stroke-width=".48"/></g><g transform="translate(209.85 658.59)"><path d="m0 0c0-1.086 0.88-1.966 1.965-1.966 1.086 0 1.966 0.88 1.966 1.966s-0.88 1.967-1.966 1.967c-1.085 0-1.965-0.881-1.965-1.967" fill="#231f20"/><path d="m0 0c0-1.085 0.88-1.966 1.965-1.966 1.086 0 1.966 0.881 1.966 1.966 0 1.086-0.88 1.967-1.966 1.967-1.085 0-1.965-0.881-1.965-1.967z" fill="none" stroke="#231f20" stroke-linecap="round" stroke-width=".48"/></g></g></svg>
